<svg width="14" height="12" viewBox="0 0 14 12" fill="none" xmlns="http://www.w3.org/2000/svg">
<path fill-rule="evenodd" clip-rule="evenodd" d="M4.54269 0C4.28846 0 4.18448 0.17804 4.31159 0.395817L4.91685 1.43187C5.04397 1.64942 5.35594 1.82746 5.61017 1.82746H10.5057C10.7596 1.82746 10.8634 2.00528 10.7358 2.22283L7.23163 8.19429C7.10428 8.41184 6.89521 8.41229 6.76719 8.19494L2.16524 0.394707C2.03723 0.177596 1.7246 0 1.47015 0H0.284795C0.0307897 0 -0.0729686 0.17804 0.0545959 0.395373L6.76833 11.837C6.89568 12.0543 7.10428 12.0543 7.23163 11.837L13.9454 0.395373C14.0729 0.17804 13.9694 0 13.7152 0H4.54269Z" fill="#2727E6"/>
</svg>
