<svg width="24" height="24" viewBox="0 0 24 24" fill="none" xmlns="http://www.w3.org/2000/svg">
<path d="M12 24C18.6274 24 24 18.6274 24 12C24 5.37258 18.6274 0 12 0C5.37258 0 0 5.37258 0 12C0 18.6274 5.37258 24 12 24Z" fill="url(#paint0_linear_45_3)"/>
<path d="M14.3444 4.6665C14.6308 4.6665 14.8632 4.89157 14.8632 5.16903C14.8632 5.44677 14.6309 5.67183 14.3444 5.67183H14.0977V7.85477C14.0977 7.98837 14.0433 8.1161 13.9456 8.21037L7.14651 14.7986L11.0782 18.6089C11.281 18.805 11.281 19.1229 11.0782 19.3193C10.9772 19.4173 10.8444 19.4665 10.7118 19.4665C10.579 19.4665 10.4462 19.4174 10.3449 19.3193L6.04651 15.1541C5.84371 14.9578 5.84371 14.6396 6.04651 14.4433L13.0601 7.64664V5.67183H10.9893V7.83931C10.9893 8.11677 10.7573 8.34184 10.4708 8.34184C10.1842 8.34184 9.95225 8.11677 9.95225 7.83931V5.67183H9.71131C9.42465 5.67183 9.19251 5.44677 9.19251 5.16903C9.19251 4.89157 9.42451 4.6665 9.71131 4.6665H14.3444ZM18.0096 14.4432C18.212 14.6394 18.212 14.9577 18.0096 15.154L13.7106 19.319C13.6093 19.4172 13.4765 19.4662 13.344 19.4662C13.2114 19.4662 13.0784 19.4172 12.9773 19.319C12.7746 19.1228 12.7746 18.8049 12.9773 18.6088L16.9092 14.7985L12.9773 10.9884C12.7746 10.7922 12.7746 10.4742 12.9773 10.2778C13.1797 10.0813 13.508 10.0813 13.7106 10.2778L18.0096 14.4432ZM8.59384 14.7985C8.59384 14.4317 8.90091 14.1345 9.27931 14.1345C9.65797 14.1345 9.96478 14.4317 9.96478 14.7985C9.96478 15.165 9.65797 15.4624 9.27931 15.4624C8.90091 15.4625 8.59384 15.165 8.59384 14.7985ZM15.4616 14.7985C15.4616 15.165 15.155 15.4624 14.7766 15.4624C14.3977 15.4624 14.0912 15.1652 14.0912 14.7985C14.0912 14.4317 14.3977 14.1345 14.7766 14.1345C15.1552 14.1345 15.4616 14.4317 15.4616 14.7985ZM12.028 13.9936C12.4868 13.9936 12.8586 14.3541 12.8586 14.7985C12.8586 15.2428 12.4868 15.6033 12.028 15.6033C11.5689 15.6033 11.1973 15.2428 11.1973 14.7985C11.1972 14.3541 11.5689 13.9936 12.028 13.9936Z" fill="white"/>
<defs>
<linearGradient id="paint0_linear_45_3" x1="6.61333" y1="23.3125" x2="17.9101" y2="-0.279466" gradientUnits="userSpaceOnUse">
<stop stop-color="#69B5FB"/>
<stop offset="1" stop-color="#80CD5B"/>
</linearGradient>
</defs>
</svg>
