<svg width="128" height="134" viewBox="0 0 128 134" fill="none" xmlns="http://www.w3.org/2000/svg">
<path d="M3.2 51.9338L4.2 53.2338C2.3 53.2338 0.3 53.0338 0 52.2338V51.9338C1 51.7338 2 51.7338 3.3 51.7338L3.2 51.9338ZM13.4 56.1338L13.8 57.5338H12.8L13 56.1338H13.4ZM17 66.3338C16 67.2338 15.3 67.7338 14.8 69.1338C14 68.4338 13.6 67.1338 13.3 65.7338L12.8 61.2338V60.5338H13.9L16.7 65.7338L17 66.3338ZM15.6 53.3338C15.7287 52.3332 15.862 51.3331 16 50.3338H16.4L15.6 53.3338ZM14.8 40.3338L19.8 41.6338V41.9338C17.5 43.6338 15.3 44.3338 14.2 47.5338L14.6 40.5338L14.8 40.3338ZM19.5 33.1338C19.2 36.3338 19.7 37.7338 20.2 39.7338C21.2 40.4338 21.5 40.7338 21.2 41.7338C19.7 41.0338 18.1 40.2338 15.8 40.3338L15.6 40.1338C16.3 37.6338 17.6 36.0338 18.5 34.0338L19.5 33.0338V33.1338ZM26.8 28.8338H27C26.3 31.1338 26 36.6338 24.8 38.8338C21.9 37.5338 22 31.6338 25.2 29.3338L26.8 28.8338ZM24.1 46.4338L26.5 49.1338C25.5 52.0338 23.8 54.1338 23 57.5338H21.6C20.4 54.0338 23.4 48.5338 23.9 46.0338L26.2 46.3338L27 48.3338L24.1 46.4338ZM30.7 28.9338C30.5 31.7338 31.1 33.1338 31.3 35.3338L27 37.5338C27.3 33.9338 28 31.5338 29 29.0338L30.7 28.9338ZM32.4 24.6338H32.7L32.2 25.9338H31.2L32 25.1338L32.4 24.6338ZM32.7 37.7338C31.3 38.7338 29.8 39.5338 28.4 40.4338C28.5 38.8338 30.5 36.6338 32.2 36.0338L32.6 36.3338V37.7338H32.7ZM35.5 27.8338L34.8 32.2338L34 32.7338L33.5 33.2338C32.8 32.1338 32.5 29.4338 32.7 27.4338L35.5 27.8338ZM38.4 24.5338V24.7338L37.3 25.7338C36.5 26.0338 36.5 26.0338 35.5 26.0338L35.9 24.5338H38.4ZM41.2 18.8338L40 21.7338L35.5 21.3338V21.1338C37.4 20.3338 39 19.3338 41.2 18.8338ZM38.9 26.2338L39.4 26.0338L39.8 27.4338C39.3 27.4338 38.8 27.2338 38.4 27.1338L38.9 26.2338ZM42.6 30.5338C40.9 31.2338 38.6 31.0338 37.2 31.7338L37 30.0338L37.8 28.9338C39.3 29.4338 40.8 29.9338 42.1 30.5338H42.6ZM39 33.1338H37V32.6338C38.3 32.0338 40.6 32.0338 42.6 31.7338L40.5 32.9338L39 33.1338ZM44 33.1338C42.3616 33.749 40.9134 34.7835 39.8 36.1338C39.6 34.7338 42.1 32.4338 43.3 31.7338C43.8 32.2338 43.9 32.2338 44.1 33.1338H44ZM47 15.9338L46.9 16.1338L45.2 17.1338L42.6 17.3338V17.1338L46.9 15.9338H47ZM44.6 20.2338L44.1 19.4338C45.3 18.4338 48.1 18.9338 49.8 19.1338L44.6 20.2338ZM57.3 15.9338C59.7 16.1338 61.9 16.6338 63.5 17.7338H64L63.7 18.0338L61.4 18.7338L57.4 18.1338L48.4 16.8338V16.6338C51.3 16.0338 54.4 15.6338 57.4 15.9338H57.3ZM66.8 15.1338L66.3 15.8338C64.9565 15.7382 63.6703 15.2516 62.6 14.4338L66.8 14.9338V15.1338ZM74.4 20.4338L75.6 20.0338L76.8 21.0338C76.6 22.2338 75.5 23.2338 74.6 24.4338H73.9C72 21.4338 69.7 18.0338 65.6 16.8338L65.4 16.5338L67.1 15.8338C69.9 16.8338 72.1 18.2338 74.8 19.1338C75.1 19.9338 75 19.6338 74.4 20.4338ZM77.8 27.3338L77.5 26.9338H76.8L78 25.9338L77.8 27.3338ZM79.1 43.1338C81.1 44.8338 81.5 47.2338 80.7 50.3338L78.2 44.9338L79 43.6338V43.2338L79.1 43.1338ZM79.6 30.2338V30.5338L78.6 31.6338L78.2 30.9338C78.8 29.8338 78.4 30.4338 79.2 30.2338H79.6ZM80.8 30.2338L85.3 31.9338V32.3338L84.2 33.1338L79.6 31.4338V31.0338L80.8 30.2338ZM89.6 35.9338L87.1 34.3338L86.8 33.6338C87.8 33.0338 87.7 33.0338 88.8 33.2338L89.6 35.9338ZM91 35.4338L90.5 35.9338C89.9 35.6338 89.8 35.2338 89.6 34.5338L90.9 35.1338L91 35.4338ZM90 31.3338H89.6L90.8 30.2338L90 31.2338V31.3338ZM96.7 38.5338L96 38.8338L92.2 36.7338L91 35.1338C93 33.6338 93 35.3338 95 36.2338L96.7 38.5338ZM98.2 39.9338L96.8 39.4338L97.7 38.9338L98.2 39.9338ZM96.5 42.2338C97 43.2338 97 43.0338 98.2 42.8338L96.1 44.7338C95.4013 43.3331 94.7013 41.9331 94 40.5338C95.5 40.1338 96 40.7338 97.5 40.9338L98.1 41.9338L96.5 42.2338ZM96.8 44.8338L99.7 43.2338C99.1 44.5338 98.4 45.2338 97.5 46.2338L96.8 44.8338ZM102.5 50.3338C101.7 51.0338 101.2 51.2338 99.8 51.3338L101 51.4338V51.6338L97 53.3338L96.8 48.2338L99.6 44.9338L100.1 44.7338L102.5 50.3338ZM101.1 42.4338C108.9 40.2338 107.4 44.4338 103.9 47.6338L101.1 42.4338ZM108.2 43.2338C105.3 56.8338 104.8 57.6338 94.5 63.4338L94 62.6338L94.3 61.1338C101 59.1338 104.8 55.7338 104.4 47.8338L107.8 43.5338L108.2 43.2338ZM108.6 43.2338L108.2 41.8338H109.2L108.6 43.2338ZM91.1 56.4338C91.1618 55.5334 91.2285 54.6334 91.3 53.7338L92.3 53.3338H92.4C92.7 55.0338 92.4 56.3338 91.9 57.6338C91.4 57.3338 91.3 57.2338 91.1 56.4338ZM85.3 68.9338V68.7338L87.3 64.2338L87.6 63.2338L90.9 63.5338L91 64.2338C91.2 65.9338 90.6 67.2338 90 69.1338L85.2 68.9338H85.3ZM86.8 74.7338C86.7984 73.8004 86.7984 72.8671 86.8 71.9338L89.3 72.1338H89.6L88 74.8338H86.8V74.7338ZM85.4 65.4338H85.5L86.6 64.7338H86.8L86.6 65.3338L85.9 67.6338L85.3 65.6338V65.4338H85.4ZM83.1 72.6338L82.5 71.9338C83.1 72.4338 82.7 71.9338 83.1 72.6338ZM79.6 70.9338C80.4 70.4338 81.3 70.5338 82.5 70.5338L82.1 71.7338C81.1 72.1338 81.1 71.9338 79.9 71.8338L79.6 70.8338V70.9338ZM81.4 76.2338L82.4 78.8338L79.9 80.6338C79.2 79.6338 80 76.6338 81.4 76.2338ZM78.6 67.2338H78.2L78.7 66.2338L78.6 67.2338ZM82.6 67.6338L82.5 67.5338L83.1 66.2338H83.3L83.9 67.6338H82.7H82.6ZM92.6 48.9338L92.5 48.4338C92.8047 48.0003 93.2187 47.6553 93.7 47.4338L93.9 48.4338L93 48.9338H92.5H92.6ZM92.5 52.4338C92.2 52.8338 91.7 52.9338 91.5 53.2338L91 46.0338L92.5 52.4338ZM89.8 62.1338C90.8 61.5338 90.9 62.1338 91 63.3338H88.2V62.8338L89.8 62.1338ZM88.4 58.1338L89.1 57.5338L89.6 58.5338L89.4 59.0338L88.2 58.8338L88.4 58.1338ZM88.2 61.9338L86.7 63.3338L85.7 63.1338H85.3L86 61.9338H88.2ZM82.8 61.1338C82.2 60.7338 82.6 60.7338 82.5 60.4338L82.8 61.1338ZM87.3 54.7338L82.5 52.2338C82.7 48.9338 83.1 45.1338 82.8 41.7338C86.5 43.1338 89.8 49.1338 87.3 54.7338ZM83.9 54.7338C85.1 55.3338 85 55.9338 86.7 56.4338C87 57.4338 86.5 57.8338 85.8 59.0338H84.2C83.8 57.0338 84.2 56.0338 84 54.7338H83.9ZM84.2 64.0338C83.6 63.6338 84.1 63.6338 84 63.3338L84.2 64.0338ZM93.9 50.1338V49.9338L95.2 49.0338C95.4 50.5338 95.3 53.0338 95 54.8338C94.2 54.2338 94 51.7338 93.9 50.2338V50.1338ZM93.9 54.7338L94.7 53.2338L94.2 54.6338H93.9V54.7338ZM102.2 50.4338H102.4C102.4 55.9338 99.1 56.9338 94.6 58.9338H93.9L96.7 53.2338L102.2 50.4338ZM93.7 39.6338L93.9 40.0338L93.5 40.3338L92.5 38.8338L93.7 39.6338ZM92.5 42.0338V41.7338H92.8L93.8 43.1338C93.1 42.8338 92.9 42.7338 92.5 42.0338ZM93.9 45.7338L91.9 47.5338L87.9 41.5338L82.5 36.9338L83.7 35.9338C86.3 37.1338 90.7 39.2338 91.7 41.9338C92 42.7338 91 43.4338 91.7 44.1338C92.5 45.0338 93.3 44.4338 93.9 45.7338ZM81.9 54.7338L82.3 54.8338L82.5 59.0338L81.8 58.8338C81.2 58.4338 80.8 56.2338 81.3 55.3338L81.9 54.7338ZM78.7 61.9338H79.2L79.6 62.9338L78.9 63.3338H78.2L78.7 61.9338ZM77.4 84.9338L76.8 82.8338C77.7334 82.6341 78.6668 82.4341 79.6 82.2338L77.4 84.9338ZM75.4 79.1338C75.6 78.3338 75.8 78.1338 76.3 77.7338L76.7 77.8338L76.8 78.2338L75.9 79.1338H75.4ZM76 80.6338L75.4 79.8338L76.8 79.1338L76.4 80.5338H76V80.6338ZM74.5 87.1338L74 86.6338H74.4L76.6 84.9338L76.8 86.6338L75.1 87.8338L74.5 87.1338ZM74.7 103.634C71.2 103.734 69.2 102.934 66.4 102.634L63.2 96.3338L62.6 95.7338C67.9 95.0338 71.3 92.4338 75.3 90.7338C76.7 92.0338 79.9 98.7338 77.1 101.834C76.4 102.834 75.7 102.934 74.7 103.634ZM59.9 96.5338L61.2 96.4338C63.2 97.7338 64.5 100.034 65.4 102.234L59.7 100.534C60.1548 99.2484 60.2243 97.8581 59.9 96.5338ZM55.9 91.0338L62.3 89.2338L72.3 90.2338L72.5 90.7338C69.5 92.0338 66.1 93.2338 62.7 94.9338C58.9 95.2338 58 93.9338 55.5 92.9338C55.5 92.3338 55.7 91.7338 55.9 91.0338ZM55.5 97.8338V96.6338L58 96.4338C58.2 97.4338 58.4 98.1338 58.1 99.3338L55.5 97.8338ZM52.6 100.134L53.6 99.6338C54.7 98.8338 55.6 99.8338 56.9 100.234L56.4 100.734L52.6 100.134ZM55.4 97.8338L54.4 97.4338L54 96.4338H55.5L55.4 97.8338ZM51.2 97.8338L52.6 99.1338L52.4 100.734L51.2 97.9338V97.8338ZM47.5 92.4338C48.8 92.0338 50.6 92.1338 52.6 92.1338L50.7 93.5338L46.9 93.1338L47.5 92.4338ZM44.1 20.4338C46.7 17.8338 53.3 18.5338 55 20.1338H55.5C53.2 22.1338 49.8 22.4338 47.7 24.4338C46.1 23.4338 44.7 22.6338 44.1 20.4338ZM58.6 24.4338L59.7 25.7338L56.7 25.9338C54.3 26.1338 52 26.5338 50.3 27.3338H50.2L49.9 26.8338C52.5624 25.4433 55.499 24.658 58.5 24.5338H58.7L58.6 24.4338ZM64.1 17.2338C66 19.1338 68.7 20.2338 69.7 23.0338C65.8 21.2338 59.9 21.2338 56.9 18.4338C58.1174 18.7477 59.387 18.8031 60.6271 18.5965C61.8672 18.3898 63.0503 17.9256 64.1 17.2338ZM65.4 27.3338L70.7 28.0338H71.1L66.9 31.6338C66.2 30.3338 66 28.5338 65.4 27.3338ZM72.2 33.5338L71.2 33.3338L72.5 33.1338L72.2 33.5338ZM71.2 30.0338L72.4 28.8338L72.5 30.2338L71.5 30.0338H71.1H71.2ZM73.7 77.7338H73.1L72.5 77.2338L72.9 76.6338C73.3 76.6338 73.6 76.4338 73.9 76.2338L73.7 77.7338ZM72.6 80.3338L73.1 79.7338V79.1338L74 80.4338L72.5 80.6338V80.3338H72.6ZM72 84.9338L71.1 83.9338L74 83.4338L72.6 84.8338H72V84.9338ZM72.5 89.2338L69.7 88.9338L71.7 87.8338L72.5 89.2338ZM70.5 85.2338L71.1 85.7338L69.1 86.2338L66.8 86.3338L69.9 84.9338L70.5 85.1338V85.2338ZM62.5 23.0338C64.2 23.0338 66 23.5338 66.8 24.4338C65.7 24.4338 63.6 24.5338 63.1 23.6338L62.6 23.0338H62.5ZM64 28.8338C64.8 29.5338 65.1 30.3338 65 31.6338C63.7 31.2338 64 29.8338 64 28.8338ZM65.4 37.8338V37.6338C68.3 37.0338 68.9 37.9338 67.6 38.8338C66.7712 38.7722 65.9913 38.4177 65.4 37.8338ZM69.1 74.8338L69.7 75.0338V75.2338L68.3 76.2338L68.8 74.8338H69.1ZM68.3 39.7338L69.3 38.8338L69.7 40.3338L68.3 40.0338V39.7338ZM72.5 78.2338L69.1 79.1338H68.3V79.0338C69.3659 78.869 70.3678 78.4199 71.2 77.7338L72.4 77.9338L72.5 78.2338ZM70.1 74.8338L69.7 74.0338L70.7 73.4338L71.1 73.6338L70.5 74.8338H70.1ZM61.1 84.8338L62.8 83.4338L68.1 83.9338L68.3 84.3338L64.7 86.3338C63.5133 86.1733 62.4183 85.6082 61.6 84.7338H61.1V84.8338ZM58.5 84.8338L61.1 86.3338L56.9 85.6338L58.5 84.9338V84.8338ZM58.3 87.8338V88.2338L57.5 88.6338H56.9V88.3338C57.5 87.5338 57.4 87.8338 58.3 87.8338ZM51.6 29.2338L51.2 28.9338C53.0352 28.142 55.0024 27.701 57 27.6338L61.9 27.4338L62.6 31.7338L57 31.2338C55.3307 31.1562 53.6578 31.2232 52 31.4338L51.6 29.4338V29.2338ZM53.6 87.0338L54 87.6338L53.7 88.9338L49.7 89.2338C50.2 87.9338 50.8 87.3338 51.5 86.3338L53.7 87.0338H53.6ZM48.8 82.0338C47 82.0338 44.6 80.6338 44.1 79.1338L49.8 80.6338L48.8 82.0338ZM50.8 82.0338H49.8V81.7338L51 80.6338L50.8 81.9338V82.0338ZM46.9 29.3338L48.6 28.8338L49.8 30.1338H48.6L46.9 29.3338ZM46.9 91.1338L46.6 92.1338H46.2L45.5 90.6338L46.9 90.8338V91.1338ZM47.7 84.9338L51 85.6338L51.2 86.0338L48.6 89.2338L45.5 88.7338L47.7 84.9338ZM72.5 39.8338L73.2 38.8338H73.4L75.2 39.3338L75.4 39.5338L73.4 40.3338L72.5 39.8338ZM76.4 35.1338L75.4 34.5338C76.4 34.9338 75.8 34.5338 76.4 35.1338ZM76.1 41.7338L75.4 41.1338L76.8 40.3338L76.1 41.7338ZM75.4 51.7338C76.1 52.0338 76.8 52.1338 77.6 52.3338C78.2 52.6338 78.2 52.6338 78.2 53.3338C77.2 52.9338 75.7 52.6338 75.4 51.8338V51.7338ZM75.6 47.9338C75.6 47.7338 75.8 47.6338 75.9 47.5338L76.8 48.9338C76.3 48.9338 75.8 48.7338 75.4 48.6338L75.6 47.9338ZM46.8 95.2338L46.9 95.6338L45 96.3338L44 96.4338V96.2338L44.7 95.2338C45.7 94.8338 45.7 95.0338 46.7 95.2338H46.8ZM42.6 23.0338C43.9 24.0338 44.2 25.0338 44 28.8338C43.2 27.8338 42.7 25.5338 42.6 23.0338ZM43.5 20.1338L43.4 21.1338L42.6 21.2338L43.5 20.2338V20.1338ZM42.6 21.6338V22.6338L41.2 22.4338L42.3 21.6338H42.6ZM42.6 105.034L43.3 97.7338L48.3 96.4338L43.1 104.834L42.6 105.034ZM43 85.3338L43.8 84.9338C44.5 85.7338 43.8 86.9338 43.2 87.8338C42.6 87.2338 42.6 86.9338 42.7 85.8338L43 85.3338ZM38.4 84.6338L40 82.0338L42.6 83.5338L39.9 87.8338C39.0417 86.9749 38.5111 85.8428 38.4 84.6338ZM38.4 95.9338L41 93.5338L42.2 93.6338L42.6 94.3338L42.3 96.4338L38.3 95.9338H38.4ZM34.1 93.9338L37.2 92.1338L39.6 92.5338L39.8 92.8338L37.3 95.0338C36.325 94.956 35.3905 94.6099 34.6 94.0338H34.1V93.9338ZM33.7 91.2338L34.8 90.6338L35.3 90.7338L35.5 91.0338L32.2 92.0338L31.2 91.7338L33.7 91.2338ZM29.8 89.8338L30.7 87.8338C32.2 87.6338 32.6 88.4338 33.7 88.8338L34.1 89.4338L32.4 90.5338L30.9 90.6338L29.9 89.8338H29.8ZM27 95.8338L29 92.1338C30.4 92.1338 30.6 92.1338 31.2 92.9338C31.4 93.3338 31.2 93.1338 30.7 93.2338L30.5 94.5338L32.7 94.8338C32.3 95.8338 32.2 95.8338 31.5 96.4338C29.5 96.4338 28.5 96.1338 27 95.7338V95.8338ZM24.6 90.6338L28.2 91.7338L28.4 92.2338L26.2 94.9338L22.8 93.8338L24.7 90.5338L24.6 90.6338ZM10.6 86.8338L10.7 86.3338L12.7 87.9338L12.9 88.3338C8.7 91.5338 15.1 102.134 22.4 95.3338L25.6 96.5338C24.4 98.6338 22.3 99.5338 20.1 100.734C14.9 101.134 7.6 92.7338 10.7 86.7338L10.6 86.8338ZM15.6 88.2338V89.2338L14.4 88.3338L14.2 87.8338L15.5 88.2338H15.6ZM22.7 94.3338L20.1 96.3338C15 96.9338 12.9 93.3338 12.8 89.0338L13.8 87.8338H14.2C16.8 89.8338 19.1 92.8338 22.5 93.9338L22.7 94.3338ZM17.7 73.3338C17.3 73.0338 17.3 72.9338 17 72.3338L18 68.6338L19.1 67.6338L19.9 68.6338L17.8 73.4338L17.7 73.3338ZM17 74.6338L19.3 69.3338L19.7 69.1338C20.7 70.9338 22.3 71.7338 22.7 74.1338L19.3 77.7338C18.3 76.9338 17.6 75.9338 17 74.7338V74.6338ZM21.3 79.0338L24.2 76.2338L25.6 79.2338L21.3 79.0338ZM28.4 50.0338C27.1 52.8338 25.3 54.8338 24.2 57.5338C23.7 55.0338 26.6 51.4338 27.5 49.2338L27.9 48.9338L28.4 49.9338V50.0338ZM28.4 42.0338C30.3084 41.4027 32.0276 40.3024 33.4 38.8338L34.1 40.8338L32.3 43.1338L28.4 42.1338V42.0338ZM35.5 42.2338L34.8 43.2338L34.1 43.0338V42.9338L35.4 41.7338L35.5 42.2338ZM34.5 36.0338H34.6L35.6 37.8338L35.2 38.8338C33.9 38.1338 33.9 37.3338 34.4 36.0338H34.5ZM34.1 77.7338L35.5 78.7338L34.1 78.0338V77.7338ZM34.1 79.1338C34.5673 79.3994 35.0339 79.6661 35.5 79.9338L32.5 82.0338C31.6 81.6338 31.5 80.8338 31.3 80.0338V79.8338L34.1 79.1338ZM29.9 76.2338L31.3 76.8338L30.5 77.2338H29.8L29.9 76.2338ZM29.9 47.5338C31.5 47.9338 31 47.6338 31.1 48.9338C30.3 48.4338 30.2 48.2338 29.8 47.5338H29.9ZM29.9 73.2338V71.9338C30.6 72.4338 30.9 72.7338 31.3 73.4338L29.8 73.2338H29.9ZM32.7 55.2338C32.1 55.9338 32.2 55.7338 31.3 56.1338L31.9 54.7338L32.7 55.2338ZM32.7 49.4338L31.7 50.4338C30.9 49.8338 31.3 50.0338 31.7 49.1338L32.3 48.9338L32.7 49.4338ZM32.6 47.0338L31.2 45.9338C32.2 46.3338 31.9 46.1338 32.5 46.9338L32.6 47.0338ZM29.8 73.4338L31.3 74.5338C30.5 74.5338 30.1 74.3338 29.8 73.4338ZM34.1 73.4338H33.5L33 72.4338C32.8994 72.3009 32.7994 72.1675 32.7 72.0338H33.5L34.1 73.3338V73.4338ZM33.3 46.7338L32.7 46.0338C33.3 46.5338 32.9 46.0338 33.3 46.7338ZM33.4 70.4338L32.7 68.9338C32.7 68.4338 32.9 68.0338 33 67.6338H33.2L34.1 70.5338L33.4 70.4338ZM29.7 87.1338L29.8 87.3338L29.3 89.2338C28.3 88.8338 27.3 87.7338 27 86.3338L29.7 87.1338ZM25.6 89.2338L27 90.5338C26 90.1338 26 90.1338 25.6 89.2338ZM28 76.4338L28.2 77.7338L27 76.2338L28 76.4338ZM26.6 83.2338L25.6 80.6338C26.8 81.0338 27.8 82.5338 28.4 83.4338L26.6 83.2338ZM27.7 57.5338H28.1L27.1 59.0338C26.9 58.6338 27.1 58.3338 27.7 57.9338V57.5338ZM27 69.9338L26.7 70.5338L25.9 69.9338L25.6 69.2338L26.6 69.1338L27 69.9338ZM17 82.0338C19.9 83.9338 24.7 85.6338 25.6 89.2338C22.1985 87.5564 19.2493 85.0873 17 82.0338ZM24.4 80.6338L25.6 82.0338L22.7 80.6338H24.4ZM34.8 84.9338L32.7 82.7338L36.5 79.1338L37 83.1338L34.8 84.9338ZM37 87.3338L37.3 86.3338H37.8L38.4 87.8338L37 87.3338ZM38.9 82.0338L38.4 80.6338C38.7 80.6338 39.1 80.6338 39.4 80.8338L38.9 82.0338ZM36.9 33.5338L38.4 33.1338L37.4 34.5338L37 33.5338H36.9ZM22.7 63.3338L21.4 60.4338C23.1 60.8338 22.8 62.0338 22.7 63.3338ZM19.2 64.7338C18 63.9338 17.2 62.2338 17.2 60.4338C19.6 61.0338 19.5 62.0338 20 64.3338L19.2 64.7338ZM17.7 57.2338C15.9 55.5338 18.6 48.7338 19.7 47.1338C20.4 46.3338 21.1 46.3338 22.1 46.1338L22.8 46.2338C21.1 49.2338 20 53.3338 19.5 57.5338L17.7 57.2338ZM15.1 80.6338L16 82.0338L15.2 83.8338L14.7 84.3338C15.4 84.4338 15.5 83.8338 16.5 83.1338C18.3 86.1338 21.1 88.9338 24.2 90.5338C23.7 91.5338 23.2 92.5338 22.5 93.5338L17.4 90.2338C16.8 89.2338 17.6 87.9338 16.7 87.2338C15.8 86.6338 14.7 87.5338 13.9 87.2338L11.4 85.0338C12.1 83.4338 12.8 81.9338 14.2 81.0338L15.1 80.6338ZM10.1 64.7338C10.3801 63.2797 10.7474 61.8437 11.2 60.4338L11.9 64.7338L12.3 66.9338L15.7 76.2338C13 74.8338 11.3 71.4338 11.6 66.8338C10.9 68.3338 11.5 70.6338 11.6 71.8338C10 70.5338 9.8 67.7338 10.2 64.7338H10.1ZM7.7 66.2338L7.2 64.4338V62.0338L7.5 61.5338L8.5 60.5338L8 64.5338L7.7 66.2338ZM106.7 80.6338L103.9 79.5338L106.7 79.1338V80.6338ZM31.5 103.934L32.2 103.534L31.4 104.934V103.934H31.5ZM9.9 54.7338L8.7 54.5338C7.86525 54.1727 7.14479 53.5909 6.61617 52.8508C6.08754 52.1107 5.77079 51.2405 5.7 50.3338C8 50.5338 8.7 51.6338 9.9 53.0338V54.7338ZM9.7 54.5338C9.9 51.5338 7.5 49.5338 4.4 49.5338C5 45.2338 8.8 43.0338 12.2 41.5338H12.8C12.3 46.9338 12.7 51.7338 10.6 56.4338C9.1 59.9338 3.7 59.8338 4 65.2338V65.7338C4.8 72.8338 12.6 74.3338 13.7 80.6338C2.2 86.4338 16.3 111.134 25.4 96.6338C27 96.9338 28.5 97.6338 30.6 96.9338C31.5 96.4338 31.6 95.9338 32.1 94.9338L35.3 96.5338L35.5 97.0338C32.5 99.3338 30.4 102.534 27.2 104.634C27.2 104.334 27.4 104.034 27.5 103.834L26.6 103.634L26.2 103.834L25.8 105.834C27.6 107.734 33.2 100.934 34.8 99.6338C33.8 102.834 31.6 104.434 30.3 107.434L30.7 107.834C33.1 106.134 36.1 101.234 36.5 97.5338L40.1 98.1338C33.8273 106.814 26.3525 114.558 17.9 121.134C18.9 118.234 20.3 116.134 21.1 113.634H20.6L20.2 113.334C18.8 116.234 16.3 118.334 15.9 122.234L16.9 123.234C24.1 122.034 36.2 103.834 41.9 98.8338C40.4 114.534 32 116.934 24.7 126.434C31.3 123.134 35.4 114.734 41 110.034C40.4 116.634 38.8 131.234 35 133.834H35.6C40 131.034 40.2 119.834 41.6 114.034L42.3 108.034L48.6 99.2338C48.8 99.2338 48.9 99.0338 49.1 98.9338C49.8 101.234 53 103.534 56.4 102.934L58.9 101.934L65.1 104.234C65.9 113.234 65.6 118.234 59.9 124.934C65.7 121.934 67.9 110.634 65.9 104.634C79.4 106.134 78.9 101.634 76.3 91.8338H78.7C78.2 91.2338 77 91.7338 76.1 91.2338C75.7 90.9338 75.8 91.0338 75.6 90.6338C78.8 87.0338 86.5 90.6338 84.8 96.6338C87.1 91.6338 82.2 87.2338 77.4 88.9338C79.4 86.6338 81.9 84.6338 83.2 81.4338L83.6 81.2338L94.7 92.8338H95.4L95.9 92.1338L85.3 79.6338C86.2956 79.2229 87.2957 78.8229 88.3 78.4338L87.8 78.1338C93.5 78.7338 100.7 83.4338 106.6 81.9338C107.1 80.9338 107.2 80.4338 106.8 79.5338C113.1 79.6338 124.4 77.5338 128 74.5338C118.344 76.6086 108.417 77.1151 98.6 76.0338L90.7 75.1338H90.3L92.4 71.3338C98.9 71.3338 115.9 71.1338 119.4 67.0338L118.6 66.0338L115.6 65.6338C115.3 65.9338 115.3 66.3338 115.3 66.6338L117.6 66.9338C112.6 68.2338 98.3 70.9338 93.6 69.3338C93.2 68.7338 93.6 66.7338 93.6 65.3338V64.4338C100.2 62.4338 105.2 58.0338 107.2 51.2338C108.3 47.3338 107.6 42.2338 110.1 39.9338C111.7 40.0338 112.1 40.7338 113.1 41.1338C112.458 40.3274 111.586 39.7347 110.6 39.4338L108.5 40.8338C106.5 41.6338 104.5 39.6338 101.3 41.1338C98.7 38.9338 97.3 35.4338 93.7 34.1338L93.3 33.4338L97.6 29.2338L93.3 33.2338L90.5 31.9338L90.3 31.5338C91.6764 30.4003 93.2881 29.5878 95.0179 29.1554C96.7477 28.7229 98.5521 28.6814 100.3 29.0338L100.8 30.0338C100.6 30.4338 100.4 30.4338 100.3 30.5338L99 30.2338C99.6 30.5338 100.1 30.6338 100.7 30.7338L101.2 30.2338V29.6338C100.4 28.9338 100.2 28.3338 98.6 28.3338L99.3 27.2338C97.5 28.4338 93.8 28.8338 92 29.9338L96.2 26.5338L96.7 25.9338L88.9 30.5338C87.2718 30.4492 85.7206 29.8146 84.5 28.7338H84.1L93.4 22.5338L93.2 21.8338L82.7 28.0338L79.3 27.1338L79.6 24.1338L103.8 5.23377H104.2C104.098 4.96768 103.998 4.70101 103.9 4.43377C102.9 3.93377 99.3 6.93377 97.9 7.83377C92.6 11.2338 87.9 15.5338 82.6 18.6338C84.7 15.8338 88.7 13.1338 89.4 9.13377L88.4 8.93377L86.7 10.3338L88.5 9.63377C86.3292 14.246 83.1102 18.2869 79.1 21.4338L78.7 20.6338C80.7 17.3338 82.5 12.9338 81.7 8.83377L80 7.83377L78.3 8.03377C79.4 8.43377 80.2 8.53377 81 9.03377C81.5 13.0338 79.5 15.8338 78.4 19.0338C78.3 19.2338 78.1 19.2338 78 19.3338C77.3 18.0338 77.3 17.3338 75.8 17.1338V16.3338C76 15.8338 76.4 15.3338 76.8 14.9338L77.4 14.4338C77.6 14.9338 77.7 14.7338 77.7 15.4338C78 15.1338 78 14.8338 78.1 14.4338L77.2 14.0338L75.1 16.3338C73.202 14.8938 71.0209 13.8715 68.7 13.3338C70.1 10.3338 74.5 5.63377 72.3 1.83377C69.5 -2.86623 60 2.53377 56.6 6.13377C56.1 6.63377 55.7 7.13377 55.6 7.53377L56.6 6.73377C60 4.13377 69.1 -1.86623 71.1 2.93377C73.1 5.63377 69.1 10.9338 68.1 12.9338C64.2823 12.5014 60.4419 12.301 56.6 12.3338C52.6 12.4338 48.4 12.9338 44.3 14.3338C42.3 15.0338 33.7 20.1338 33.3 20.0338L29.4 16.3338L21.2 12.2338V12.6338L20.7 13.1338L31.2 21.9338L29.6 22.9338C25.6403 19.5661 20.9492 17.1692 15.9 15.9338L14.8 16.1338L26.1 23.4338L26.9 24.4338C24.2 25.5338 23 27.9338 20.8 29.4338C17.1975 27.5995 13.4518 26.0611 9.6 24.8338L9.3 25.7338L17.3 30.9338H17.8C17.3 31.1338 16.8 31.5338 16.4 31.8338C15.8 33.9338 14.5 36.4338 13.4 39.5338C9.4 42.8338 4.2 42.5338 3.4 49.2338C2.1 49.6338 1.2 49.7338 0 50.5338V51.5338C2.70613 53.319 5.67555 54.6688 8.8 55.5338L9.8 54.5338H9.7ZM57.5 8.53377L58.1 8.63377H56.9C57.5 7.43377 59.4 7.13377 61.1 7.23377V8.03377L57.5 8.23377V8.53377ZM60 10.0338L61.7 9.53377C62.4 8.33377 62.8 7.03377 62.4 5.83377C60.7 5.53377 59.7 5.93377 58.1 6.63377L57.2 8.03377L56.9 8.63377L57.2 8.93377C57.8 9.43377 58.4 9.53377 59.6 9.43377C60 10.0338 59.6 9.83377 59 9.93377L60 10.0338ZM101.4 23.0338C101.167 23.1339 100.933 23.2339 100.7 23.3338L101.9 23.8338L100 27.3338C101 26.2338 102 25.3338 102.4 23.6338L101.4 23.0338ZM91 79.1338C90.6 78.3338 90 77.8338 89.6 77.7338L91 79.1338ZM85.3 96.4338L83.9 97.2338H85L85.3 96.4338ZM91 79.1338C91.828 80.1267 92.4492 81.2752 92.827 82.5116C93.2048 83.7481 93.3316 85.0476 93.2 86.3338C94.9 82.8338 93 80.6338 91 79.1338Z" fill="white" fill-opacity="0.92"/>
</svg>
