<svg width="40" height="41" viewBox="0 0 40 41" fill="none" xmlns="http://www.w3.org/2000/svg">
<mask id="mask0_57_11" style="mask-type:luminance" maskUnits="userSpaceOnUse" x="0" y="0" width="40" height="41">
<path d="M40 0.5H0V40.5H40V0.5Z" fill="white"/>
</mask>
<g mask="url(#mask0_57_11)">
<path fill-rule="evenodd" clip-rule="evenodd" d="M20 36.5C28.8366 36.5 36 29.3366 36 20.5C36 11.6634 28.8366 4.5 20 4.5C11.1634 4.5 4 11.6634 4 20.5C4 29.3366 11.1634 36.5 20 36.5Z" fill="#000305"/>
<path d="M0 17.812C0 3.55557 3.05557 0.5 17.312 0.5H22.688C36.9444 0.5 40 3.55557 40 17.812V23.188C40 37.4444 36.9444 40.5 22.688 40.5H17.312C3.05557 40.5 0 37.4444 0 23.188V17.812Z" fill="white"/>
<path d="M20.4984 29.836C18.0184 29.836 16.0824 29.156 14.6904 27.796C13.2984 26.436 12.6024 24.508 12.6024 22.012V12.7H17.3544V21.868C17.3544 23.308 17.6344 24.34 18.1944 24.964C18.7704 25.588 19.5544 25.9 20.5464 25.9C21.5384 25.9 22.3144 25.588 22.8744 24.964C23.4344 24.34 23.7144 23.308 23.7144 21.868V12.7H28.3944V22.012C28.3944 24.508 27.6984 26.436 26.3064 27.796C24.9144 29.156 22.9784 29.836 20.4984 29.836Z" fill="black"/>
</g>
</svg>
