<svg width="21" height="21" viewBox="0 0 21 21" fill="none" xmlns="http://www.w3.org/2000/svg">
<path d="M0 10.5C0 4.70085 4.6998 0 10.5 0C16.2981 0 21 4.70085 21 10.5C21 16.2991 16.2981 21 10.5 21C4.6998 21 0 16.2991 0 10.5Z" fill="#FC3F1D"/>
<path d="M11.844 5.949H10.8738C9.09513 5.949 8.15958 6.84989 8.15958 8.17814C8.15958 9.67964 8.80639 10.3831 10.1346 11.2851L11.2319 12.0243L8.07873 16.7356H5.72253L8.55229 12.5209C6.92478 11.3544 6.01128 10.2214 6.01128 8.3052C6.01128 5.9028 7.68603 4.2627 10.8623 4.2627H14.0154V16.7241H11.844V5.949Z" fill="white"/>
</svg>
